<?xml version="1.0" encoding="UTF-8"?>
<svg id="Layer_1" xmlns="http://www.w3.org/2000/svg" version="1.1" viewBox="0 0 800 800">
  <!-- Generator: Adobe Illustrator 29.3.1, SVG Export Plug-In . SVG Version: 2.1.0 Build 151)  -->
  <defs>
    <style>
      .st0 {
        fill: none;
      }

      .st1 {
        fill: #fff;
      }
    </style>
  </defs>
  <path class="st1" d="M710.8,287.2l-164.7-164.7c-16.3-16.2-42.6-16.2-58.9,0L122.5,487.2c-16.3,16.3-16.3,42.7,0,58.9l164.7,164.7c16.3,16.3,42.7,16.3,58.9,0,0,0,0,0,0,0l364.7-364.7c16.3-16.3,16.3-42.7,0-58.9h0ZM466.7,190.2l176.4,176.4-259.8,259.8-176.4-176.4L466.7,190.2ZM322.6,687.2c-3.3,3.3-8.5,3.3-11.8,0,0,0,0,0,0,0l-49-49,16.7-16.7-66.7-66.7-16.7,16.7-49-49c-3.3-3.3-3.3-8.5,0-11.8,0,0,0,0,0,0l37.2-37.2,176.4,176.4-37.2,37.2ZM687.2,322.6l-20.6,20.5-176.4-176.4,20.5-20.5c3.3-3.3,8.5-3.3,11.8,0,0,0,0,0,0,0l164.7,164.7c3.2,3.3,3.2,8.5,0,11.8h0ZM733.7,531.4v68.6c0,55.2-44.8,99.9-100,100h-109.7l54.5,54.5-23.6,23.6-94.9-94.9,94.9-94.9,23.6,23.6-54.9,54.9h110.1c36.8,0,66.6-29.9,66.7-66.7v-68.6h33.3ZM133.3,300h-33.3v-66.7c0-55.2,44.8-99.9,100-100h109.8l-54.9-54.9,23.6-23.6,94.9,94.9-94.9,94.9-23.6-23.6,54.4-54.4h-109.3c-36.8,0-66.6,29.9-66.7,66.7v66.7Z"/>
  <path class="st0" d="M0,0h800v800H0V0Z"/>
</svg>